<svg xmlns="http://www.w3.org/2000/svg" viewBox="0 0 48 48" width="48" height="48">
  <!-- White background circle -->
  <circle cx="24" cy="24" r="22" fill="white"/>
  
  <!-- Central black circle -->
  <circle cx="24" cy="24" r="8" fill="#1a1a1a"/>
  
  <!-- Coral/Pink curved element (top) -->
  <path d="M24 6 C28 6, 32 8, 35 12 C38 16, 38 20, 35 22 C32 24, 28 22, 24 18 C20 14, 20 10, 24 6 Z" 
        fill="#E85A5A"/>
  <circle cx="24" cy="8" r="3" fill="#E85A5A"/>
  
  <!-- Teal curved element (bottom right) -->
  <path d="M32 24 C36 24, 40 26, 42 30 C44 34, 42 38, 38 40 C34 42, 30 40, 28 36 C26 32, 28 28, 32 24 Z" 
        fill="#4ECDC4"/>
  <circle cx="38" cy="36" r="3" fill="#4ECDC4"/>
  
  <!-- Orange curved element (bottom left) -->
  <path d="M16 24 C12 24, 8 26, 6 30 C4 34, 6 38, 10 40 C14 42, 18 40, 20 36 C22 32, 20 28, 16 24 Z" 
        fill="#F7A942"/>
  <circle cx="10" cy="36" r="3" fill="#F7A942"/>
  
  <!-- Additional curved connecting elements for dynamic flow -->
  <path d="M24 16 Q30 18, 32 24" stroke="#E85A5A" stroke-width="2" fill="none" opacity="0.3"/>
  <path d="M24 16 Q18 18, 16 24" stroke="#E85A5A" stroke-width="2" fill="none" opacity="0.3"/>
</svg>