<svg xmlns="http://www.w3.org/2000/svg" viewBox="0 0 48 48" width="48" height="48">
  <!-- Background circle for contrast -->
  <circle cx="24" cy="24" r="23" fill="white" stroke="#f0f0f0" stroke-width="1"/>
  
  <!-- Coral/Pink person element -->
  <path d="M24 8 C26 8, 28 10, 28 12 C28 14, 26 16, 24 16 C22 16, 20 14, 20 12 C20 10, 22 8, 24 8 Z
           M20 18 C20 18, 18 20, 18 24 C18 28, 20 30, 24 30 C28 30, 30 28, 30 24 C30 20, 28 18, 28 18 Z" 
        fill="#E85A5A"/>
  
  <!-- Teal person element -->
  <path d="M12 20 C14 18, 16 18, 18 20 C20 22, 20 24, 18 26 C16 28, 14 28, 12 26 C10 24, 10 22, 12 20 Z
           M8 28 C8 28, 6 30, 8 34 C10 38, 14 38, 16 34 C18 30, 16 28, 16 28 Z" 
        fill="#4ECDC4"/>
  
  <!-- Orange person element -->
  <path d="M36 20 C38 18, 40 18, 38 22 C36 24, 36 26, 38 26 C40 28, 38 30, 36 26 C34 24, 34 22, 36 20 Z
           M32 28 C32 28, 30 30, 32 34 C34 38, 38 38, 40 34 C42 30, 40 28, 40 28 Z" 
        fill="#F7A942"/>
  
  <!-- Connection lines between elements -->
  <path d="M22 22 Q16 24 14 26" stroke="#E85A5A" stroke-width="2" fill="none" opacity="0.6"/>
  <path d="M26 22 Q32 24 34 26" stroke="#E85A5A" stroke-width="2" fill="none" opacity="0.6"/>
</svg>